<?xml version="1.0" standalone="no"?>
<!DOCTYPE svg PUBLIC "-//W3C//DTD SVG 20010904//EN"
 "http://www.w3.org/TR/2001/REC-SVG-20010904/DTD/svg10.dtd">
<svg version="1.0" xmlns="http://www.w3.org/2000/svg"
 width="5300.000000pt" height="5000.000000pt" viewBox="0 0 5300.000000 5000.000000"
 preserveAspectRatio="xMidYMid meet">

<g transform="translate(0.000000,5000.000000) scale(0.100000,-0.100000)"
fill="#000000" stroke="none">
<path d="M21550 38363 c-330 -19 -711 -100 -1034 -219 -152 -57 -487 -222
-629 -311 -1179 -737 -1816 -2112 -1616 -3488 37 -260 110 -533 212 -795 55
-143 230 -486 246 -482 7 1 10 -2 6 -8 -9 -15 84 -162 97 -154 7 4 8 2 4 -4
-8 -14 46 -96 154 -232 l81 -101 24 18 c13 10 22 24 20 31 -3 7 0 10 6 7 5 -4
36 15 67 42 31 27 68 59 82 70 303 254 456 386 460 397 5 13 -133 186 -143
179 -6 -3 -7 -1 -3 5 3 6 -20 51 -53 101 -146 222 -280 542 -345 821 -168 725
-29 1477 385 2085 185 272 417 507 689 697 359 252 844 422 1303 457 59 4 109
10 111 12 4 3 -20 854 -24 877 0 1 -10 1 -22 0 -13 -1 -48 -3 -78 -5z"/>
<path d="M14980 36887 c0 -16 22 -52 44 -70 13 -11 16 -17 6 -15 -13 3 -15
-25 -14 -199 0 -164 -2 -203 -13 -203 -11 0 -13 -36 -9 -200 3 -121 1 -200 -5
-200 -5 0 -9 -67 -9 -160 0 -134 -2 -160 -15 -160 -12 0 -14 -26 -12 -162 1
-90 3 -144 5 -120 5 74 22 45 22 -38 0 -80 0 -80 -26 -80 l-27 0 5 -200 c3
-112 1 -201 -4 -202 -5 -2 -10 -74 -11 -161 -1 -86 -5 -157 -9 -157 -4 0 -8
-90 -8 -200 0 -119 -4 -200 -9 -200 -6 0 -12 19 -14 43 -2 23 -3 -29 -1 -115
2 -87 0 -157 -4 -155 -4 1 -8 -2 -9 -8 -1 -5 5 -9 14 -7 10 2 14 -2 10 -11 -3
-9 0 -18 8 -21 9 -3 12 0 9 8 -3 7 1 16 8 18 9 4 13 -6 13 -33 1 -21 -3 -35
-7 -33 -4 3 -8 0 -8 -5 0 -6 5 -11 10 -11 6 0 10 -10 10 -22 0 -12 3 -18 7
-15 3 4 11 -3 17 -16 7 -13 20 -22 33 -21 14 1 20 -3 16 -12 -3 -8 -10 -11
-15 -8 -6 4 -5 -3 1 -15 13 -24 21 -26 41 -8 12 10 12 9 2 -4 -9 -12 -9 -18 0
-27 6 -6 -47 15 -119 48 -556 254 -1177 409 -1838 461 -242 18 -770 15 -930
-6 -11 -1 -39 -3 -63 -4 -32 -1 -41 -4 -36 -13 5 -9 2 -9 -9 1 -9 7 -17 10
-17 5 0 -5 -37 -10 -82 -11 -45 -1 -88 -5 -97 -9 -9 -4 -23 -8 -31 -8 -8 -1
-21 -5 -29 -10 -10 -6 -12 -5 -7 2 5 8 0 9 -15 3 -13 -4 -25 -14 -27 -22 -3
-11 -1 -11 7 1 8 11 11 12 11 2 0 -7 5 -10 10 -7 13 8 8 -18 -5 -27 -5 -4 -12
-3 -15 2 -3 4 -4 -68 -2 -161 3 -165 3 -169 -17 -169 -20 0 -21 5 -20 178 0
108 4 169 9 157 l9 -20 0 20 c0 11 -4 27 -9 35 -8 13 -10 13 -10 -2 0 -20 -16
-32 -31 -22 -8 4 -7 9 2 15 10 6 5 8 -13 7 -36 -3 -35 -11 5 -31 29 -15 30
-16 7 -14 l-25 2 -3 -202 c-2 -140 1 -203 8 -203 7 0 10 -17 8 -42 -4 -61 -31
-59 -39 2 l-6 45 -1 -41 c-2 -42 -25 -78 -35 -52 -2 7 -7 10 -11 7 -3 -3 3
-14 15 -25 14 -13 20 -14 17 -4 -3 16 24 21 34 5 5 -6 13 -2 23 10 14 19 15
18 3 -8 -8 -19 -15 -24 -22 -17 -14 14 -23 13 -23 -5 0 -8 3 -12 7 -10 4 2 18
-6 30 -18 18 -15 22 -17 17 -5 -3 9 -1 19 6 22 9 3 9 5 0 5 -7 1 -13 6 -13 12
0 5 5 7 11 4 6 -4 9 0 7 10 -2 10 3 20 10 22 8 3 12 -9 12 -42 0 -34 -3 -44
-12 -39 -8 4 -10 3 -5 -2 5 -5 12 -9 15 -9 4 0 13 -4 20 -8 6 -5 12 -5 12 -1
0 3 9 -4 20 -17 10 -13 19 -20 20 -16 0 4 10 -1 22 -13 30 -28 37 -16 8 15
-18 19 -26 22 -32 13 -4 -7 -8 -10 -9 -5 -1 4 -2 10 -3 15 -1 4 -4 12 -8 18
-4 6 -1 11 7 11 8 0 12 -4 9 -9 -8 -12 10 -10 26 5 12 10 12 9 2 -4 -10 -13
-8 -19 8 -34 20 -18 20 -18 14 13 -6 32 7 44 22 20 4 -7 3 -8 -4 -4 -7 4 -12
1 -12 -9 0 -9 4 -14 8 -11 5 3 9 -1 9 -9 0 -8 -5 -15 -10 -15 -5 0 -4 -6 2
-13 6 -8 7 -18 3 -23 -4 -4 1 -2 10 5 25 19 48 7 40 -21 -5 -21 -4 -22 11 -9
15 12 17 12 12 -2 -4 -8 -1 -18 6 -23 8 -5 10 -3 4 7 -5 8 3 2 18 -13 24 -26
39 -33 60 -29 5 1 6 -2 3 -7 -3 -5 6 -14 19 -20 14 -7 25 -16 25 -22 0 -5 7
-10 15 -10 8 0 19 -9 25 -21 7 -11 14 -19 16 -16 3 2 18 -7 33 -22 64 -60 85
-76 93 -73 5 1 7 -1 4 -6 -3 -5 24 -38 61 -73 216 -211 415 -544 536 -899 39
-115 134 -444 252 -875 249 -911 371 -1297 532 -1677 l45 -108 2459 0 c1352 0
2459 4 2459 8 0 25 -235 532 -247 532 -180 8 -409 68 -568 147 -440 221 -726
639 -775 1132 -6 67 -10 865 -10 2277 l0 2173 -87 73 c-310 259 -690 503
-1088 698 -218 107 -483 222 -495 215 -5 -3 -10 -1 -12 4 -5 17 -138 63 -138
48 0 -6 -5 -4 -11 6 -6 9 -14 15 -20 12 -5 -4 -9 -2 -9 3 0 5 -10 12 -22 15
-21 6 -22 5 -5 -7 16 -13 15 -14 -12 -18 -31 -5 -61 13 -79 47 -6 11 -12 16
-12 12z m126 -75 c-9 -8 -56 -11 -51 -2 2 4 16 8 30 8 14 0 24 -3 21 -6z m859
-1984 c34 -77 95 -240 95 -253 0 -8 3 -15 8 -15 4 0 12 -12 19 -27 6 -16 21
-51 33 -80 12 -29 20 -58 17 -65 -3 -7 -8 2 -12 20 -9 39 -27 43 -19 4 6 -29
-18 -63 -30 -43 -9 14 4 42 16 35 6 -4 9 -1 7 5 -3 7 -8 11 -11 9 -4 -2 -14 6
-23 17 l-17 20 7 -20 c4 -11 10 -26 13 -34 3 -9 1 -12 -6 -7 -7 4 -12 11 -12
16 0 5 -15 42 -34 82 -19 40 -59 130 -89 200 l-55 127 31 20 c43 26 45 26 62
-11z m219 -504 c3 -8 2 -12 -4 -9 -6 3 -10 10 -10 16 0 14 7 11 14 -7z m-4504
-404 c0 -64 -3 -80 -15 -80 -12 0 -15 16 -15 80 0 64 3 80 15 80 12 0 15 -16
15 -80z m3261 -23 c-10 -9 -11 -8 -5 6 3 10 9 15 12 12 3 -3 0 -11 -7 -18z
m14 -56 c4 -32 -8 -43 -19 -15 -3 9 -2 12 5 9 6 -4 7 3 3 22 -4 15 -4 25 0 22
4 -4 8 -20 11 -38z m61 -119 c-17 -16 -18 -16 -5 5 7 12 15 20 18 17 3 -2 -3
-12 -13 -22z m-2942 -400 c3 -5 -1 -9 -9 -9 -8 0 -12 4 -9 9 3 4 7 8 9 8 2 0
6 -4 9 -8z m2542 -1094 c343 -347 640 -758 944 -1308 35 -63 137 -261 226
-439 139 -278 161 -328 152 -345 -10 -20 -10 -20 7 -6 17 14 18 13 12 -2 -3
-9 -3 -18 1 -20 4 -2 15 -18 24 -36 16 -31 17 -35 1 -58 -17 -27 -36 -27 -41
1 -3 11 0 15 8 10 7 -4 16 -1 21 6 13 20 11 35 -2 22 -8 -8 -20 -8 -34 -3 -22
8 -23 7 -15 -19 4 -17 4 -34 -2 -42 -8 -11 -9 -10 -4 4 6 19 -10 24 -17 5 -3
-8 -6 -6 -6 5 -1 9 -1 20 -2 25 0 4 -7 11 -15 15 -8 4 -14 13 -14 20 0 7 4 6
10 -3 6 -10 10 -11 10 -2 0 24 -1 27 -13 25 -7 -2 -46 66 -86 150 -440 899
-787 1430 -1243 1902 l-131 136 38 39 c22 22 42 40 45 40 3 0 60 -55 126 -122z
m1393 -2235 c0 -25 -1 -26 -9 -8 -12 27 -12 35 0 35 6 0 10 -12 9 -27z m24
-28 c4 -8 2 -17 -3 -20 -6 -4 -10 3 -10 14 0 25 6 27 13 6z m-33 -82 c-10 -16
-10 -16 -5 3 4 14 1 21 -10 21 -11 0 -14 -7 -10 -21 5 -19 5 -19 -5 -3 -12 18
-5 41 10 32 5 -3 12 0 17 7 5 10 8 9 11 -4 2 -10 -2 -25 -8 -35z m58 12 c-3
-3 -9 2 -12 12 -6 14 -5 15 5 6 7 -7 10 -15 7 -18z m-64 -56 c-3 -5 -10 -7
-15 -3 -5 3 -7 10 -3 15 3 5 10 7 15 3 5 -3 7 -10 3 -15z"/>
<path d="M15929 30083 c-13 -16 -12 -17 4 -4 9 7 17 15 17 17 0 8 -8 3 -21
-13z"/>
<path d="M15010 36871 c0 -10 31 -31 45 -31 4 0 5 6 3 13 -3 6 -9 12 -14 12
-5 0 -15 4 -21 8 -8 5 -13 4 -13 -2z"/>
<path d="M14773 34101 c0 -11 5 -18 9 -15 4 3 5 11 1 19 -7 21 -12 19 -10 -4z"/>
<path d="M11506 34098 c3 -5 10 -6 15 -3 13 9 11 12 -6 12 -8 0 -12 -4 -9 -9z"/>
<path d="M14750 34081 c0 -6 4 -13 10 -16 6 -3 7 1 4 9 -7 18 -14 21 -14 7z"/>
<path d="M14840 33991 c0 -6 -9 -8 -20 -6 -11 2 -18 0 -15 -5 7 -12 38 -6 43
8 2 7 1 12 -2 12 -3 0 -6 -4 -6 -9z"/>
<path d="M11593 33840 c0 -47 2 -66 4 -42 2 23 2 61 0 85 -2 23 -4 4 -4 -43z"/>
<path d="M11529 33583 c-13 -16 -12 -17 4 -4 9 7 17 15 17 17 0 8 -8 3 -21
-13z"/>
<path d="M11850 33418 c0 -4 4 -8 9 -8 6 0 12 4 15 8 3 5 -1 9 -9 9 -8 0 -15
-4 -15 -9z"/>
<path d="M39164 29142 c-7 -4 -12 -44 -13 -97 -1 -49 -4 -92 -7 -96 -2 -4 0
-10 5 -13 5 -3 7 -15 4 -25 -5 -18 1 -19 107 -18 142 2 150 9 150 129 0 70 -3
82 -25 103 -22 23 -32 25 -117 25 -51 0 -98 -4 -104 -8z"/>
<path d="M39460 28440 c0 -89 -3 -120 -12 -121 -46 -4 67 -17 160 -18 167 -2
192 16 192 134 0 60 -3 69 -29 96 l-29 29 -141 0 -141 0 0 -120z"/>
<path d="M41628 27743 l-678 -678 -243 243 -244 244 -407 -407 -407 -407 -32
15 c-18 8 -70 29 -117 47 -47 19 -171 68 -275 110 l-191 77 -204 -124 c-113
-68 -223 -134 -245 -148 -22 -14 -157 -94 -300 -180 l-259 -155 2142 0 2142 0
0 1020 c0 561 -1 1020 -3 1020 -1 0 -307 -305 -679 -677z"/>
<path d="M16060 27979 c-786 -57 -1500 -503 -1894 -1181 -181 -314 -292 -674
-321 -1049 l-7 -86 213 -6 c117 -4 251 -7 298 -7 l87 0 12 118 c91 854 747
1515 1602 1613 127 14 360 7 485 -15 115 -21 261 -62 348 -97 l68 -28 15 37
c8 20 61 143 118 272 l102 235 -23 13 c-46 26 -215 82 -331 111 -162 41 -273
59 -437 71 -153 11 -180 11 -335 -1z"/>
<path d="M24445 27651 c-214 -53 -279 -324 -112 -466 79 -68 11 -65 1352 -65
1357 0 1278 -4 1360 71 118 109 120 289 4 393 -84 77 30 71 -1344 73 -676 0
-1243 -2 -1260 -6z"/>
<path d="M21040 26960 l0 -110 900 0 900 0 0 110 0 110 -900 0 -900 0 0 -110z"/>
<path d="M36052 24968 c-8 -8 -11 -50 -10 -132 l2 -121 6 125 6 125 2 -122 2
-123 25 0 24 0 4 123 3 122 2 -122 2 -123 65 0 65 0 0 130 0 130 -93 0 c-59 0
-97 -4 -105 -12z"/>
<path d="M20490 24700 l0 -110 725 0 725 0 0 110 0 110 -725 0 -725 0 0 -110z"/>
<path d="M35635 24280 l0 -130 88 0 87 0 0 130 0 130 -87 0 -88 0 0 -130z m22
-62 c-2 -35 -3 -7 -3 62 0 69 1 97 3 63 2 -35 2 -91 0 -125z"/>
<path d="M35884 23715 l1 -130 98 -3 97 -3 0 131 0 130 -90 0 -90 0 -2 -122
-2 -123 -6 125 -6 125 0 -130z"/>
<path d="M42576 22573 c-6 -14 -5 -15 5 -6 7 7 10 15 7 18 -3 3 -9 -2 -12 -12z"/>
<path d="M42535 22529 c-11 -16 -1 -19 13 -3 7 8 8 14 3 14 -5 0 -13 -5 -16
-11z"/>
<path d="M42470 22508 c-14 -11 -18 -19 -10 -16 8 3 23 1 32 -3 11 -6 19 -5
24 3 4 7 3 8 -4 4 -11 -6 -16 6 -13 27 1 10 -1 9 -29 -15z"/>
<path d="M42373 22446 c-22 -11 -22 -12 -3 -24 28 -17 37 -15 14 4 -16 13 -16
15 -2 10 10 -3 20 -1 23 4 9 15 -9 19 -32 6z"/>
<path d="M42424 22441 c4 -5 1 -11 -6 -13 -8 -3 -7 -6 3 -10 10 -4 15 1 16 13
1 10 -3 19 -8 19 -6 0 -8 -4 -5 -9z"/>
<path d="M42314 22411 c6 -8 2 -11 -10 -9 -21 3 -27 -24 -6 -28 7 -1 8 0 2 3
-5 2 -10 9 -10 14 0 6 8 5 20 -1 11 -6 19 -16 17 -22 -1 -6 5 -13 13 -15 13
-4 13 -3 0 6 -13 9 -12 11 5 11 18 1 18 2 -3 11 -13 5 -21 13 -17 18 3 5 0 13
-6 17 -8 5 -9 3 -5 -5z"/>
<path d="M42222 22378 c2 -6 10 -13 16 -14 7 -1 8 0 2 3 -5 2 -8 9 -4 14 3 5
0 9 -6 9 -7 0 -10 -5 -8 -12z"/>
<path d="M42142 22373 c-16 -6 15 -32 38 -32 9 0 6 5 -8 12 -12 7 -19 16 -16
20 8 8 5 8 -14 0z"/>
<path d="M14855 22360 c-187 -27 -376 -85 -540 -165 -60 -29 -139 -67 -175
-83 -116 -52 -195 -158 -221 -297 -14 -72 -6 -234 16 -322 8 -34 17 -77 20
-95 22 -127 197 -527 263 -600 51 -57 124 -80 252 -81 170 -2 294 48 562 226
151 100 154 103 147 132 -4 17 -7 71 -8 122 -1 113 22 186 75 232 55 49 115
37 168 -33 40 -52 55 -107 63 -218 3 -54 9 -100 12 -102 3 -2 27 -6 52 -10
l46 -7 -9 53 c-6 29 -8 96 -6 148 6 116 27 170 91 230 56 53 72 103 64 203
-10 135 -82 301 -179 414 -100 117 -241 205 -378 237 -82 20 -237 27 -315 16z"/>
<path d="M42114 22335 c1 -8 6 -18 11 -22 4 -5 5 -2 0 6 -6 11 -4 13 10 7 15
-5 16 -4 5 9 -16 19 -29 19 -26 0z"/>
<path d="M42234 22328 c1 -10 6 -17 11 -16 6 2 9 9 8 16 0 8 5 11 14 8 8 -3
11 -2 8 3 -10 17 -42 8 -41 -11z"/>
<path d="M42111 22290 c14 -31 19 -36 19 -24 0 6 -7 19 -16 30 -14 18 -14 18
-3 -6z"/>
<path d="M42141 22294 c0 -11 3 -14 6 -6 3 7 2 16 -1 19 -3 4 -6 -2 -5 -13z"/>
<path d="M41725 21969 c-200 -42 -293 -65 -440 -114 -163 -53 -233 -88 -327
-164 -90 -72 -280 -268 -403 -414 -58 -70 -97 -107 -110 -107 -11 0 -498 50
-1083 111 -584 62 -1065 109 -1068 106 -4 -3 67 -246 156 -539 241 -791 259
-848 430 -1415 l73 -241 146 -27 c294 -55 264 -45 279 -95 52 -177 98 -249
185 -292 158 -78 553 -160 1122 -233 116 -15 211 -28 212 -29 1 -1 -9 -137
-22 -301 -14 -165 -25 -302 -25 -305 0 -3 13 -13 29 -23 l29 -17 -14 -53 c-54
-201 -170 -764 -278 -1352 -117 -637 -326 -1846 -326 -1889 0 -21 16 -32 123
-85 386 -191 864 -300 1547 -352 258 -20 1042 -16 1237 6 21 2 76 6 123 10
118 7 354 36 362 44 14 13 67 511 89 846 15 233 15 863 0 1075 -44 602 -137
1124 -280 1571 -23 70 -41 130 -41 133 0 4 13 12 30 17 l29 11 -21 51 c-86
212 -219 680 -259 912 -21 120 -34 405 -19 418 3 2 93 -5 200 -16 266 -26 629
-29 683 -5 22 10 41 28 47 43 23 61 10 354 -31 675 -99 787 -256 1404 -420
1656 -60 92 -151 149 -364 224 -115 40 -548 151 -557 142 -3 -4 -74 -173 -158
-376 -83 -203 -154 -375 -158 -383 -6 -10 -22 0 -64 37 -31 27 -58 50 -61 50
-8 0 -94 -239 -131 -367 -71 -246 -116 -520 -116 -711 0 -51 7 -175 16 -274 8
-99 13 -183 10 -186 -3 -3 -42 -7 -86 -10 l-81 -5 5 -26 c3 -14 17 -87 32
-162 l26 -137 79 -12 c52 -8 80 -17 84 -28 3 -8 4 -16 3 -17 -2 -2 -98 8 -214
22 l-211 25 -85 -26 c-73 -22 -98 -36 -172 -96 -102 -82 -157 -112 -194 -108
-26 3 -29 10 -65 146 l-38 142 52 86 c66 110 103 152 143 162 l31 8 6 245 c6
244 22 392 60 578 35 173 109 442 183 667 l73 222 -51 21 c-28 11 -54 21 -58
21 -4 0 -50 -28 -103 -61 -52 -34 -97 -60 -99 -58 -2 3 208 302 432 613 19 27
28 46 20 45 -7 0 -76 -14 -153 -30z m1738 -2048 c14 -38 31 -91 37 -117 10
-41 9 -50 -7 -66 -15 -15 -29 -17 -84 -12 l-66 7 17 56 c44 144 63 201 69 201
4 0 19 -31 34 -69z m-1203 -1136 c23 -126 73 -387 111 -579 48 -242 66 -352
59 -356 -14 -9 -201 -28 -350 -36 -196 -11 -476 20 -647 71 l-52 15 6 315 6
315 -201 0 c-110 0 -207 3 -216 6 -14 5 -16 27 -16 140 0 123 2 134 18 134 10
0 104 -16 209 -35 l190 -35 309 106 c170 58 359 122 419 144 61 21 111 35 112
31 1 -3 21 -109 43 -236z"/>
<path d="M36315 21528 c-71 -4 -131 -12 -133 -18 -2 -5 -10 -6 -18 -3 -8 3
-22 2 -31 -2 -10 -5 -27 -8 -38 -9 -11 -1 -26 -5 -32 -9 -7 -5 -19 -5 -25 -1
-8 5 -7 0 2 -11 14 -17 14 -18 -8 -6 -19 10 -25 9 -44 -9 -12 -11 -25 -20 -30
-20 -4 0 -8 -864 -8 -1920 l0 -1920 30 0 30 0 3 1923 2 1922 3 -1922 2 -1923
255 0 255 0 0 1970 0 1970 -42 -1 c-24 -1 -101 -6 -173 -11z m-207 -73 c-3 -3
-9 2 -12 12 -6 14 -5 15 5 6 7 -7 10 -15 7 -18z"/>
<path d="M35946 21455 c-8 -8 -21 -12 -29 -9 -20 7 -29 -20 -17 -52 13 -32 13
-43 0 -24 -6 10 -10 -652 -10 -1877 l0 -1893 25 0 25 0 0 1919 0 1919 23 15
c12 9 17 16 10 16 -6 1 -18 -6 -27 -14z m-26 -25 c0 -5 -5 -10 -11 -10 -5 0
-7 5 -4 10 3 6 8 10 11 10 2 0 4 -4 4 -10z"/>
<path d="M35827 21403 c-10 -10 -8 -43 2 -43 5 0 8 11 7 25 0 14 -1 25 -2 25
0 0 -4 -3 -7 -7z"/>
<path d="M35871 21374 c0 -11 3 -14 6 -6 3 7 2 16 -1 19 -3 4 -6 -2 -5 -13z"/>
<path d="M35745 21351 c-3 -5 -2 -12 3 -15 5 -3 9 1 9 9 0 17 -3 19 -12 6z"/>
<path d="M12574 19428 c-4 -6 -2 -14 4 -16 7 -2 10 -7 7 -12 -3 -4 5 -5 17 -2
19 5 20 7 5 10 -9 2 -15 7 -12 12 3 5 1 11 -4 14 -5 4 -13 1 -17 -6z"/>
<path d="M12642 19398 c2 -8 -6 -12 -20 -11 -19 2 -21 1 -10 -11 7 -8 22 -12
33 -10 19 3 20 -1 17 -118 -2 -75 -8 -128 -15 -138 -11 -13 -10 -13 6 -1 9 8
21 11 24 7 4 -4 1 -11 -7 -16 -8 -5 -11 -12 -6 -17 4 -4 12 0 17 10 6 9 15 17
21 17 7 0 7 -4 -1 -13 -6 -8 -8 -17 -4 -20 3 -4 -2 -9 -11 -13 -9 -3 -16 -12
-16 -20 0 -8 -5 -14 -12 -14 -6 0 -9 -2 -6 -5 10 -10 58 7 52 17 -4 6 -2 13 4
17 5 3 13 24 16 46 4 22 9 51 12 65 3 14 7 32 8 40 2 8 8 26 13 40 26 63 26
70 -1 80 -14 5 -26 13 -26 17 0 5 -8 13 -17 19 -17 10 -18 3 -15 -117 2 -86 0
-129 -7 -129 -7 0 -11 45 -12 128 -1 70 -1 130 0 134 0 4 -8 12 -19 18 -16 8
-20 8 -18 -2z m28 -12 c0 -2 -7 -7 -16 -10 -8 -3 -12 -2 -9 4 6 10 25 14 25 6z
m77 -72 c-3 -3 -12 -4 -19 -1 -8 3 -5 6 6 6 11 1 17 -2 13 -5z"/>
<path d="M12609 19022 c11 -8 11 -11 0 -16 -8 -3 -4 -3 9 0 35 8 26 -4 -10
-15 l-33 -10 33 2 c17 1 32 5 32 9 0 4 7 5 15 2 8 -4 15 -2 15 4 0 5 -8 12
-17 15 -10 2 -27 8 -38 12 -14 5 -16 4 -6 -3z"/>
<path d="M12680 19009 c0 -5 5 -7 10 -4 6 3 10 8 10 11 0 2 -4 4 -10 4 -5 0
-10 -5 -10 -11z"/>
<path d="M16182 16781 c2 -37 6 -47 20 -48 12 -1 16 3 11 10 -3 7 2 5 13 -4
10 -8 45 -28 76 -43 31 -15 68 -40 81 -56 14 -16 28 -26 32 -22 4 4 5 2 4 -3
-2 -5 3 -32 10 -58 18 -64 9 -164 -22 -247 -45 -117 -52 -135 -58 -140 -4 -3
-16 -24 -28 -47 l-21 -43 54 0 54 0 40 83 c113 230 115 414 7 535 -43 48 -126
101 -168 106 -12 2 -29 6 -37 9 -8 3 -27 7 -42 10 -27 4 -28 3 -26 -42z"/>
<path d="M16980 14957 l0 -684 -157 38 c-227 55 -403 93 -407 88 -2 -2 12
-137 30 -299 53 -484 84 -792 84 -848 0 -62 -2 -63 -137 -86 -346 -59 -1187
-102 -1828 -93 -401 6 -491 12 -873 63 -107 14 -196 24 -198 21 -17 -16 176
-235 267 -303 l47 -34 1635 0 c1631 0 1635 0 1703 -21 56 -17 77 -31 126 -80
l59 -59 271 -10 c148 -5 296 -7 328 -3 31 3 60 2 63 -3 3 -5 19 -853 36 -1884
17 -1031 34 -1930 37 -1997 l6 -123 94 0 c52 0 94 -4 94 -9 0 -5 -13 -67 -29
-137 -36 -159 -71 -349 -71 -386 0 -15 12 -49 26 -75 23 -43 25 -56 21 -123
-3 -41 -8 -85 -12 -97 -6 -20 -1 -23 51 -39 52 -15 126 -17 644 -20 764 -3
934 10 1084 81 99 47 133 126 86 203 -36 58 -121 87 -540 182 -258 58 -326 82
-416 142 -86 58 -274 237 -274 262 0 14 14 16 95 16 l95 0 0 28 c0 43 26 387
80 1047 189 2305 236 3154 200 3615 -19 242 -33 279 -128 322 -200 90 -844
278 -1739 509 l-203 52 0 713 0 714 -125 0 -125 0 0 -683z"/>
<path d="M24930 11780 l0 -3860 120 0 120 0 0 3860 0 3860 -120 0 -120 0 0
-3860z"/>
<path d="M17171 12172 c-34 -16 -81 -27 -123 -30 l-68 -5 2 -1790 3 -1791 119
-48 c66 -26 121 -46 123 -45 2 2 2 843 1 1869 l-3 1864 -54 -24z"/>
<path d="M14230 12055 l0 -85 185 0 185 0 0 -105 c0 -115 58 -2704 62 -2771
l3 -42 161 63 c89 34 167 66 173 69 8 5 11 385 11 1392 l0 1384 150 0 150 0 0
-1373 0 -1374 157 -61 c86 -34 158 -60 159 -59 3 3 46 512 119 1422 31 373 79
1028 101 1353 l7 102 118 0 119 0 0 85 0 85 -930 0 -930 0 0 -85z"/>
<path d="M12550 11870 c0 -5 5 -10 11 -10 5 0 7 5 4 10 -3 6 -8 10 -11 10 -2
0 -4 -4 -4 -10z"/>
<path d="M9950 11761 c0 -6 4 -13 10 -16 6 -3 7 1 4 9 -7 18 -14 21 -14 7z"/>
<path d="M9976 11633 c-6 -14 -5 -15 5 -6 7 7 10 15 7 18 -3 3 -9 -2 -12 -12z"/>
<path d="M43117 9223 c20 -241 -3 -451 -73 -662 -69 -205 -138 -308 -237 -352
-46 -21 -67 -24 -182 -24 -106 0 -136 3 -162 18 -18 10 -33 23 -33 30 0 8 20
55 45 105 24 51 43 92 41 92 -7 0 -145 -218 -200 -315 -66 -117 -100 -208 -91
-242 24 -98 508 -103 710 -7 113 53 179 208 257 594 l33 165 3 -142 3 -143 34
0 35 0 0 318 c0 348 -6 400 -58 514 -31 69 -95 148 -119 148 -13 0 -14 -14 -6
-97z"/>
<path d="M39826 9189 c-9 -38 -28 -142 -41 -231 -54 -351 -140 -602 -237 -695
-18 -18 -55 -42 -83 -55 -44 -20 -65 -23 -180 -23 -106 0 -136 3 -162 18 -18
10 -33 23 -33 30 0 7 16 46 36 87 45 96 34 83 -61 -65 -83 -130 -170 -301
-180 -352 -12 -60 38 -86 200 -104 143 -15 375 13 497 60 53 20 113 87 152
170 39 84 88 265 127 471 l24 125 3 -142 3 -143 34 0 35 0 0 323 c0 287 -2
332 -19 399 -20 79 -75 198 -90 198 -5 0 -17 -32 -25 -71z"/>
<path d="M14920 8756 c-147 -46 -187 -62 -162 -64 28 -3 32 -7 32 -33 0 -16
-15 -98 -34 -182 -55 -243 -79 -401 -80 -525 l-1 -114 31 -28 c19 -17 53 -33
85 -40 79 -17 325 -24 560 -15 l205 7 -20 42 c-16 30 -21 60 -21 116 0 64 4
82 27 121 31 53 79 97 121 111 15 6 27 14 25 18 -10 28 -544 650 -557 649 -9
-1 -104 -29 -211 -63z"/>
<path d="M15580 8703 c0 -4 5 -15 10 -23 8 -13 10 -13 10 2 0 9 -4 20 -10 23
-5 3 -10 3 -10 -2z"/>
<path d="M16980 8095 l0 -175 125 0 125 0 0 140 c0 107 -3 140 -13 140 -7 0
-62 16 -122 35 -61 19 -111 35 -112 35 -2 0 -3 -79 -3 -175z"/>
<path d="M15861 8237 c22 -41 63 -102 91 -135 65 -76 87 -158 67 -247 -7 -31
-16 -58 -21 -61 -4 -3 -8 -10 -8 -16 0 -16 98 -2 167 24 33 12 74 37 96 58 32
33 37 43 37 86 0 27 -9 65 -20 89 -44 92 -111 128 -408 221 -10 3 -10 -1 -1
-19z"/>
</g>
</svg>
